<?xml version="1.0" encoding="UTF-8"?>
<svg viewBox="0 0 1080 1080" xmlns="http://www.w3.org/2000/svg">
 <g fill-rule="evenodd" stroke-width=".5">
  <g fill="#050607" stroke="#050607">
   <path d="m947 281.5l0.5 1.5 0.5 1.5 0.5 1.5 0.3 1 0.2 1h2l0.2-1 0.3-1 1-3.5q1-3.5 1.5-5l0.5-1.5 0.5-2 0.5-2 0.5-1.5 0.5-1.5 0.5 1.5 0.5 1.5 0.5 1.5 0.5 1.5 6 29.5q6 29.5 8 51t1.5 47-2.5 40-2.5 17l-0.5 2.5-0.5 2-0.5 2-0.3 1.5-0.2 1.5 1-0.2 1-0.3 0.2-0.3 0.3-0.2 0.3-0.2 0.2-0.3 0.2-0.3 0.3-0.2 0.3-0.2 0.2-0.3 0.2-0.3 0.3-0.2 0.5-1 0.5-1 0.3-0.2 0.2-0.3 0.2-0.3 0.3-0.2 5.5-7q5.5-7 5.8-7.2l0.2-0.3 0.2-0.3 0.3-0.2 0.3-0.2 0.2-0.3 0.2-0.3 0.3-0.2 0.3-0.2 0.2-0.3 0.2-0.3 0.3-0.2 0.3-0.2 0.2-0.3 0.2-0.3 0.3-0.2 0.5-1 0.5-1 0.3-0.2 0.2-0.3 0.2-0.3 0.3-0.2v3l-0.5 2.5-0.5 2.5-0.5 2.5q-0.5 2.5-2.5 11.5t-9 30-17.5 42-21.5 35.5-16.3 19q-5.2 4.5-5.2 5.5t-6.2 5.5q-6.3 4.5-16 10.3-9.8 5.7-20.3 9.2t-25 3.5-22-2.5-16.5-3-15 1l-6 1.5-0.2 0.3-0.3 0.2-0.3-0.2-0.2-0.3-0.2-0.3-0.3-0.2-0.5-9q-0.5-9-1-11t-6-13l-5.5-11-0.5-1-0.5-1-0.3-0.2-0.2-0.3-0.2-0.3-0.3-0.2-0.3-0.2-0.2-0.3-0.2-0.3-0.3-0.2v-3l0.3 0.2 0.2 0.3 0.2 0.3 0.3 0.2 0.3 0.2 0.2 0.3 0.2 0.3 0.3 0.2 0.5 1 0.5 1 0.3 0.2 0.2 0.3 0.2 0.3 0.3 0.2 0.5 1 0.5 1 2.5 3q2.5 3 2.8 3.2l0.2 0.3 0.2 0.3 0.3 0.2 0.5 1 0.5 1 0.3 0.2 0.2 0.3 0.2 0.3 0.3 0.2 0.3 0.2 0.2 0.3 0.2 0.3 0.3 0.2 0.3 0.2 0.2 0.3 0.2 0.3 0.3 0.2 0.3 0.2 0.2 0.3 0.2 0.3 0.3 0.2v-7l-0.5-2.5q-0.5-2.5-2.5-9.5t-12.5-31.5-21-52.5-15.5-51.5-5-50 4-47.5 10-35.5l6-14.5 0.5-1 0.5-1 0.5-1 0.5-1 0.3-0.2 0.2-0.3 0.2-0.3 0.3-0.2 0.5-1 0.5-1 0.3-0.2 0.2-0.3 0.2-0.3 0.3-0.2v5l0.5 17q0.5 17 1 19.5t1 5.5l0.5 3 0.5 2 0.5 2 0.5 1.5 0.5 1.5 0.3-0.2 0.2-0.3 0.2-0.3 0.3-0.2 2.5-14.5q2.5-14.5 9-32.5t15.2-34.8q8.8-16.7 17.8-27.7t15.5-15.5 7.7-4.2q1.3 0.2-1.7 12.2t-3 19.5 11.3-1.7q11.2-9.3 25.2-16.3t26-10 27-3 19.2 2.3q4.3 2.2 5 4.2 0.79999 2-8.2 1.2-9-0.7-13.2 2.6-4.3 3.2 4.2 15.7t16.5 29.5 8.5 18.5zm-74 292.5l-1 0.5-2 0.5-2 0.5h-5l0.2-0.3 0.3-0.2 0.3-0.2 0.2-0.3 0.2-0.3 0.3-0.2 0.3-0.2 0.2-0.3 0.2-0.3 0.3-0.2 0.3-0.2 0.2-0.3 0.2-0.3 0.3-0.2 0.3-0.2 0.2-0.3 0.2-0.3 0.3-0.2 0.3-0.2 0.2-0.3 0.2-0.3 0.3-0.2 0.3-0.2 0.2-0.3 1-0.5q1-0.5 5.8-6.8 4.7-6.2 11.7-23.2l7-17 0.5-2 0.5-2 0.5-1.5 0.5-1.5 0.3 0.2 0.2 0.3 0.2 0.3 0.3 0.2 0.5 3.5q0.5 3.5 1 5.5l0.5 2 0.3-0.2 0.2-0.3 0.2-0.3 0.3-0.2 0.5-1 0.5-1 0.3-0.2 0.2-0.3 0.2-0.3 0.3-0.2 0.5-1.5 0.5-1.5 0.5-1q0.5-1 9-23.5t12.5-40.5 4-45-2.5-42.5l-2.5-15.5-0.3-1.5-0.2-1.5-1.5 0.2-1.5 0.3-0.2 0.3-0.3 0.2-0.3 0.2-0.2 0.3-0.2 0.3q-0.29999 0.20001-4.8 3.2l-4.5 3-0.3 0.2-0.2 0.3-1 0.5-1 0.5-0.2 0.3-0.3 0.2-0.3 0.2-0.2 0.3-0.2 0.3-0.3 0.2v-6q0-3-0.5-6t-4-12-12.2-22l-8.8-13-1-0.2-1-0.3-0.2-0.3-0.3-0.2-0.3-1-0.2-1-1-0.2-1-0.3-0.2-0.3-0.3-0.2-0.3-0.2-0.2-0.3h-2l0.2 0.3 0.3 0.2 0.5 1 0.5 1 0.3 0.2 0.2 0.3 0.2 0.3 0.3 0.2 0.5 1 0.5 1 8 17q8 17 10 25.5t1 26.5-1.5 22l-0.5 4v6l0.3-0.2 0.2-0.3 0.2-0.3 0.3-0.2 0.3-0.2 0.2-0.3 0.2-0.3 0.3-0.2 0.5-1 0.5-1 0.3-0.2 0.2-0.3 0.2-0.3 0.3-0.2 0.3-0.2 0.2-0.3 0.2-0.3 0.3-0.2 6.5-9q6.5-9 7-10l0.5-1 0.3-0.2 0.2-0.3 0.2-0.3 0.3-0.2 0.3-0.2 0.2-0.3 0.2-0.3 0.3-0.2 0.5-1 0.5-1 0.3-0.2 0.2-0.3 0.2-0.3 0.3-0.2 0.3-0.2 0.2-0.3 0.2-0.3 0.3-0.2 0.3 0.2 0.2 0.3 0.2 0.3 0.3 0.2-0.5 22q-0.5 22-3 38.5t-7.5 30-8 19.5-3.5 7l-0.5 1-0.5 1.5-0.5 1.5-0.5 1-0.5 1-0.5 1-0.5 1-0.3-0.2-0.2-0.3-0.2-0.3-0.3-0.2-0.5-2-0.5-2-0.5-2q-0.5-2-2-7.5l-1.5-5.5-0.5-2-0.5-2-0.5-2-0.5-2-0.3-0.2-0.2-0.3-0.2-0.3-0.3-0.2-0.5 8.5q-0.5 8.5-1 11.5t-5.5 21.5-8 23.5-19 19-23.3 16.2l-7.2 2.3-1 0.5-1 0.5-1 0.5-1 0.5-0.2 0.3-0.3 0.2-0.5-7q-0.5-7-1.5-16.5t-5-21.5-20.5-46.5-21-51-5-37 1-28.5l1.5-8 0.5-1.5 0.5-1.5 0.5-1 0.5-1 0.5 1 0.5 1 0.5 1 0.5 1 0.5 1 0.5 1 4.5 11q4.5 11 5 12l0.5 1 0.5 1.5 0.5 1.5 0.5 1 0.5 1 0.5 1 0.5 1 0.5-7q0.5-7 3.5-29t7-32 11.5-20.5l7.5-10.5 0.3-0.2 0.2-0.3 0.2-0.3 0.3-0.2 0.3-0.2 0.2-0.3 0.2-0.3 0.3-0.2 0.3-0.2 0.2-0.3 0.2-0.3 0.3-0.2 0.3-0.2 0.2-0.3 0.2-0.3 0.3-0.2 0.3-0.2 0.2-0.3h2l0.2 0.3 0.3 0.2 0.5 4q0.5 4 0.79999 10l0.2 6h2l0.2-1 0.3-1 0.5-1 0.5-1 0.5-1 0.5-1 6.3-10.2q6.2-10.3 13.2-16.8t19-12.5 20.5-8.5 16.3 7.2q7.7 9.8 13.2 22.8t11.2 31.8q5.8 18.7 10.8 16.2t7.2 26.8q2.3 29.2 1.8 48.7t-6.2 52q-5.8 32.5 3.2 30t4.2 8q-4.7 10.5-16 27.7-11.2 17.3-20 27-8.7 9.8-18 15-9.2 5.3-13.2 6.8t-5 2z"/>
   <path d="m432.8 86.2l0.2 0.3 0.2 0.3 0.3 0.2 0.3 0.2 0.2 0.3 0.2 0.3 0.3 0.2v-5.5q0-5.5-3-17l-3-11.5-0.5-1-0.5-1-0.5-1-0.5-1-0.3-1-0.2-1h2l0.2 1 0.3 1 0.3 0.2 0.2 0.3 0.2 0.3 0.3 0.2 0.3 0.2 0.2 0.3 0.2 0.3 0.3 0.2 0.3 0.2 0.2 0.3 0.2 0.3 0.3 0.2 0.3 0.2 0.2 0.3 0.2 0.3 0.3 0.2 16.7 19.8q16.8 19.7 19.6 21.4 2.7 1.8 6.7 11.3t7 32.5 3 56.5-3.5 58.5-10 45.5-18 43-12 23.5l-0.5 1-0.5 1-0.5 1-0.5 1-0.5 1-0.3 1-0.2 1h-2l-0.2-3-0.3-3-0.5-3q-0.5-3-1.5-8.5l-1-5.5-0.5-1-0.5-1-0.5 1-0.5 1-0.3 0.2-0.2 0.3-0.2 0.3-0.3 0.2-0.5 1-0.5 1-0.5 1-0.5 1-9.7 12.8q-9.8 12.7-15.8 18-6 5.2-6.5 6.4-0.5 1.3-1.5 1.6-1 0.20001-1.5 1.4-0.5 1.3-1.5 1.6-1 0.20001-2.5 2.4-1.5 2.3-2.5 2.6-1 0.20001-1.5 1.4-0.5 1.3-1.5 1.6-1 0.20001-1.5 1.4-0.5 1.3-1.5 1.6-1 0.20001-7 7-6 6.7-6.2 7l-0.3 0.2-0.3 0.2-0.2 0.3-0.2 0.3-0.3 0.2-0.3 0.2-0.2 0.3-0.2 0.3-0.3 0.2-0.3 0.2-0.2 0.3-0.2 0.3-0.3 0.2-0.3 0.2-0.2 0.3-0.2 0.3-0.3 0.2-0.3 0.2-0.2 0.3-0.2 0.3-0.3 0.2-0.5-2.5-0.5-2.5-0.5-3q-0.5-3-2.5-8t-5.7-8.8q-3.8-3.7-19.8-8.2t-26-11-19.5-17.5-18.3-24.7q-8.7-13.8-15.2-30.8t-10.5-38-4.5-44.5l-0.5-23.5 0.5 1 0.5 1 0.5 1.5 0.5 1.5 0.3 0.2 0.2 0.3 0.2 0.3 0.3 0.2 0.5 1 0.5 1 4.5 7q4.5 7 7.2 9.2 2.8 2.3 3 2.6l0.3 0.2 0.3 0.2 0.2 0.3 1 0.5 1 0.5 0.2 0.3 0.3 0.2 0.3 0.2 0.2 0.3 1 0.5 1 0.5h3l-0.2-0.3-0.3-0.2-0.5-2-0.5-2-0.5-2.5q-0.5-2.5-3-16t-3.5-35 1.5-37.5 7-26 15-25 14.8-18.5q4.2-3.5 4.2-4.5t6-5.2l6-4.3 1-0.5 1-0.5 0.2-0.3 0.3-0.2 0.3-0.2 0.2-0.3 1-0.5 1-0.5 1-0.5 1-0.5-4-0.5-4-0.5-5-0.5-5-0.5-4-0.5-4-0.5 0.2-0.3 0.3-0.2 0.3-0.2 0.2-0.3 1-0.5 1-0.5 0.2-0.3 0.3-0.2 0.3-0.2 0.2-0.3 0.2-0.3 0.3-0.2 0.3-0.2 0.2-0.3 1-0.5 1-0.5 8.5-5q8.5-5 16.5-7.5t19-2 22.5 5.5 26.7 16.7q15.3 11.8 16.6 12.3 1.2 0.5 4.7 4.3 3.5 3.7 10.7 11 7.3 7.2 7.6 7.4zm4.2 36.3l0.5-2.5 0.5-1 0.5-1 0.5 1 0.5 1 0.5 1.5 0.5 1.5 5 23.5q5 23.5 6 32.5t0.5 31-6.5 52-7.5 35.5-2 7.5l-0.5 2-0.5 2-0.5 2-0.5 1.5-0.5 1.5-0.3 0.2-0.2 0.3-0.2 0.3-0.3 0.2-0.5-1.5-0.5-1.5-0.5-1.5-0.5-1.5-0.5-2q-0.5-2-1-4l-0.5-2-0.5-1.5-0.5-1.5-0.3-0.2-0.2-0.3-0.2-0.3-0.3-0.2-0.5 3.5-0.5 3.5-4.5 12q-4.5 12-11 21t-9.2 11.8q-2.8 2.7-3 3l-0.3 0.2-0.3 0.2-0.2 0.3-0.2 0.3-0.3 0.2-0.3 0.2-0.2 0.3-0.2 0.3-0.3 0.2-0.3 0.2-0.2 0.3-0.2 0.3-0.3 0.2-0.3 0.2-0.2 0.3-0.2 0.3-0.3 0.2-0.3 0.2-0.2 0.3-1 0.3-1 0.2 0.2-5.5q0.29999-5.5 1.8-12.5t6-17 13.5-19 13.5-18 5-16l0.5-7-0.3-2-0.2-2-2 0.2-2 0.3-2 0.5q-2 0.5-13 3l-11 2.5-2.5 0.5-2.5 0.5h-3l0.2-0.3 0.3-0.2 0.3-0.2 0.2-0.3 0.2-0.3 0.3-0.2 0.3-0.2 0.2-0.3 0.2-0.3 0.3-0.2 0.5-1 0.5-1 0.3-0.2 0.2-0.3 0.2-0.3 0.3-0.2 0.3-0.2 0.2-0.3 0.2-0.3q0.29999-0.20001 1.3-1.7t8-14.5 11.5-29 5.5-33.5-1.5-30-8.5-24-13.5-19.5l-7.5-8-0.3-0.2-0.2-0.3-1-0.5-1-0.5-0.2-0.3-0.3-0.2-0.3-0.2-0.2-0.3-0.2-0.3-0.3-0.2-0.3-0.2-0.2-0.3-0.2-0.3-0.3-0.2-0.3-0.2-0.2-0.3-1-0.3-1-0.2 0.2 1 0.3 1 0.3 0.2 0.2 0.3 0.2 0.3 0.3 0.2 0.5 1 0.5 1 0.5 1 0.5 1 0.5 1 0.5 1 0.3 1 0.2 1h0.20001q0.29999 0 0.59998 0.5l0.2 0.5h0.20001q0.29999 0 0.59998 0.5l0.2 0.5 8.2 19q8.3 19 9.3 23.5t1 14v9.5l-0.5 1.5-0.5 1.5-0.5 1-0.5 1-0.3-0.2-0.2-0.3-0.2-0.3-0.3-0.2-0.5-1-0.5-1-0.5-1-0.5-1-0.3-0.2-0.2-0.3-0.2-0.3-0.3-0.2-0.5-1q-0.5-1-2-4l-1.5-3-0.5-1-0.5-1-0.5-1-0.5-1-0.5-1-0.5-1-0.3-0.2-0.2-0.3-0.2-0.3-0.3-0.2v5l1 7q1 7 0.5 25t-3.5 26.5-10.7 19.3q-7.8 10.7-11.3 14.2t-4.5 4l-1 0.5-0.2 0.3-0.3 0.2-0.3 0.2-0.2 0.3-0.2 0.3-0.3 0.2-0.3 0.2-0.2 0.3-0.2 0.3-0.3 0.2-0.3 0.2-0.2 0.3-0.2 0.3-0.3 0.2-0.3 0.2-0.2 0.3-0.2 0.3-0.3 0.2-0.3 0.2-0.2 0.3h3l1.5-0.5q1.5-0.5 3.5-1l2-0.5h3l-0.2 0.3-0.3 0.2-0.3 0.2-0.2 0.3-0.2 0.3-0.3 0.2-0.5 1-0.5 1-0.3 0.2-0.2 0.3-0.2 0.3-0.3 0.2-0.3 0.2-0.2 0.3-0.2 0.3-0.3 0.2-0.3 0.2-0.2 0.3-2.5 3.5q-2.5 3.5-2.7 3.8l-0.3 0.2-0.3 0.2-0.2 0.3-0.2 0.3-0.3 0.2-0.5 1-0.5 1-0.3 0.2-0.2 0.3-0.2 0.3-0.3 0.2-0.3 0.2-0.2 0.3-0.2 0.3-0.3 0.2-0.3 0.2-0.2 0.3h7l11.5-1.5q11.5-1.5 15-2l3.5-0.5h5l-0.2 0.3-0.3 0.2-0.3 0.2-0.2 0.3-0.2 0.3-0.3 0.2-0.3 0.2-0.2 0.3-0.2 0.3-0.3 0.2-0.3 0.2-0.2 0.3-1 0.5-1 0.5-0.2 0.3-0.3 0.2-0.3 0.2-0.2 0.3-8.2 9.3q-8.3 9.2-14.3 20.7t-8 21.5-2.5 19l-0.5 9-0.3-0.2-0.2-0.3-2-0.5q-2-0.5-11-3t-23.5-9-21-11.5-12-12.5-10.7-20.8q-5.3-13.2-9.3-34.2l-4-21-0.3-2.5-0.2-2.5 2 0.2 2 0.3 5 1q5 1 7.5 1.5l2.5 0.5h6l-0.2-0.3-0.3-0.2-0.5-1-0.5-1-0.5-1-0.5-1-0.5-1.5q-0.5-1.5-4-16.5t-3.8-39l-0.2-24 0.2-2 0.3-2 4.5-15.5q4.5-15.5 12.2-28.3 7.8-12.7 17.3-23.2t18-15.5 9.5-5.5l1-0.5 0.2-0.3 0.3-0.2v-2l-2.3-3q-2.2-3-3.2-3t-1-1 20.8 8.5q20.7 9.5 31 17.3 10.2 7.7 27.2 24.2t17.2 16.2q0.29999-0.2 0.79999-2.7z"/>
   <path d="m291.5 428v7l-0.5 2.5-0.5 2.5-0.5 1-0.5 1-0.3-0.2-0.2-0.3-0.2-0.3-0.3-0.2-0.3-0.2-0.2-0.3-0.2-0.3-0.3-0.2-0.5-1-0.5-1-0.3-0.2-0.2-0.3-0.2-0.3-0.3-0.2-0.3-0.2-0.2-0.3-0.2-0.3-0.3-0.2-0.3-0.2q-0.20001-0.29999-4-5l-3.7-4.8-0.3-0.2-0.2-0.3-0.2-0.3-0.3-0.2-0.3-0.2-0.2-0.3-0.2-0.3-0.3-0.2-0.3-0.2-0.2-0.3-0.2-0.3-0.3-0.2-0.3-0.2-0.2-0.3-0.2-0.3-0.3-0.2-0.5-1-0.5-1-0.3-0.2-0.2-0.3-0.2-0.3-0.3-0.2v2l0.5 1 0.5 1 0.5 1 0.5 1 0.5 1 0.5 1 6 15q6 15 8 28.5t2 44.5-2.5 45-6.8 22.2q-4.2 8.3-9.7 12.8t-7.5 5l-2 0.5h-7l-1.5-0.3-1.5-0.2v-2l1.5-0.2 1.5-0.3 1-0.5q1-0.5 3.5-2l2.5-1.5 1-0.5 1-0.5 0.2-0.3 0.3-0.2 0.3-0.2 0.2-0.3-2-0.5-2-0.5h-6l-7.5 2q-7.5 2-13.3 6.3-5.7 4.2-10.7 12.2t-7 15-1.5 18.5 0.8 13l0.2 1.5-12.5-0.2q-12.5-0.29999-21-1.8t-28-8.5-36.5-17-25.2-17.7q-8.3-7.8-13.3-16.3l-5-8.5-0.5-2-0.5-2-0.3-1.5-0.2-1.5 8 0.8q8 0.70001 13.5 1.2l5.5 0.5h5l-0.2-0.3-0.3-0.2-0.3-0.2-0.2-0.3-1-0.5-1-0.5-0.2-0.3-0.3-0.2-0.3-0.2-0.2-0.3-1-0.5-1-0.5-1-0.5q-1-0.5-7.5-4.5l-6.5-4-1-0.5-1-0.5-0.2-0.3-0.3-0.2-0.3-0.2-0.2-0.3-1-0.5-1-0.5-1-0.5-1-0.5-0.2-0.3-0.3-0.2-0.3-0.2-0.2-0.3h2l1.5 0.5 1.5 0.5 4 1q4 1 6 1.5l2 0.5 2 0.5 2 0.5h2l-0.2-0.3-0.3-0.2-0.3-0.2-0.2-0.3-0.2-0.3-0.3-0.2-0.3-0.2-0.2-0.3-1-0.5-1-0.5-1-0.5-1-0.5-1-0.5q-1-0.5-10.5-8t-17.7-17.8q-8.3-10.2-13.8-22.2t-8.2-25.5q-2.8-13.5 0.2-13.3 3 0.29999 0.8-9.4l-2.3-9.8-0.5-2.5-0.5-2.5-0.3-1-0.2-1h2l0.2 1.5 0.3 1.5 0.5 1 0.5 1 0.5 1 0.5 1 5.3 8q5.2 8 6.2 8t4 3.8q3 3.7 4 4 1 0.20001 1 1.2 0 1 3 3.2 3 2.3 4 2.8l1 0.5 0.2 0.3 0.3 0.2 0.3 0.2 0.2 0.3 0.2 0.3 0.3 0.2 0.3 0.2 0.2 0.3 0.2 0.3 0.3 0.2 0.3 0.2 0.2 0.3 1 0.5 1 0.5h2l-0.2-0.3-0.3-0.2-0.3-0.2-0.2-0.3-0.2-0.3-0.3-0.2-0.3-0.2-0.2-0.3-0.2-0.3-0.3-0.2-0.3-0.2-0.2-0.3-0.2-0.3-0.3-0.2-0.3-0.2-0.2-0.3-0.2-0.3-0.3-0.2-0.5-1-0.5-1-0.3-0.2q-0.2-0.29999-5.4-8.6-5.3-8.2-11.3-23.7t-10-36.5-4.5-44 2-35.5l2.5-12.5 0.5-1 0.5-1 0.5-1.5 0.5-1.5 0.3 0.2 0.2 0.3 0.2 0.3 0.3 0.2 0.5 1 0.5 1 1.5 2.5q1.5 2.5 2 3.5l0.5 1 0.3 0.2 0.2 0.3 0.2 0.3 0.3 0.2 0.3 0.2 0.2 0.3 0.2 0.3 0.3 0.2 0.5-6q0.5-6 3-15.5t8-18 16-17l10.5-8.5 0.3-0.2 0.2-0.3 1-0.5 1-0.5 1-0.5 1-0.5 0.2-0.3 0.3-0.2 0.3-0.2 0.2-0.3 1-0.3 1-0.2-0.2 1-0.3 1-1 3.5q-1 3.5-1.5 5l-0.5 1.5v3l0.3-0.2 0.2-0.3 1-0.5 1-0.5 1.5-0.5 1.5-0.5 12-4.5q12-4.5 19-5t10-0.20001l3 0.2-1.5-4.2q-1.5-4.3 3-2.8t23 12 37.5 25.5 32.8 29.7q13.7 14.8 25.2 32.8t17 32.5 6.5 20 1 12.5zm-49 68.5v-4.5l-0.3-0.2-0.2-0.3-0.2-0.3-0.3-0.2-0.5 1-0.5 1-0.5 1-0.5 1-0.5 1-0.5 1-0.3 0.2-0.2 0.3-1.2 2.3q-1.3 2.2-1.8 3.2l-0.5 1-0.5 1-0.5 1-0.5 1-0.5 1-0.3 0.2-0.2 0.3-0.2 0.3-0.3 0.2-0.5-19.5q-0.5-19.5-1.5-28.5t-6-23.5-13.5-28.5l-8.5-14-0.5-1-0.5-1-0.3-0.2-0.2-0.3-0.2-0.3-0.3-0.2-0.3-0.2-0.2-0.3-0.2-0.3-0.3-0.2-0.5-1-0.5-1-0.3-0.2-0.2-0.3h3l2 0.5 2 0.5 6 1.5q6 1.5 8 2l2 0.5 2 0.3 2 0.2-0.2-1.5-0.3-1.5-0.5-1-0.5-1-0.5-1-0.5-1-0.5-1q-0.5-1-2.5-4t-10-11.5-17.5-15.5-24.2-12.8l-14.8-5.7-2.5-0.5-2.5-0.5h-3l0.2 0.3 0.3 0.2 0.3 0.2 0.2 0.3 1 0.5 1 0.5 1 0.5 1 0.5 1.5 0.5 1.5 0.5 17.2 9.7q17.3 9.8 23.8 15.8t6.8 6.2l0.2 0.3 0.2 0.3 0.3 0.2 0.5 1 0.5 1 0.3 0.2 0.2 0.3 0.2 0.3 0.3 0.2 0.5 1 0.5 1 0.3 1 0.2 1-10.5-0.2q-10.5-0.29999-14.5-0.29999h-4l0.2 0.3 0.3 0.2 0.3 0.2 0.2 0.3 0.2 0.3 0.3 0.2 0.5 1 0.5 1 0.3 0.2 0.2 0.3 0.2 0.3 0.3 0.2 0.3 0.2 0.2 0.3 0.2 0.3 0.3 0.2 10 17q10 17 16.5 32.5t8.5 26 1.5 25-3 25.5-3 12.5l-0.5 1.5-0.5 1.5-0.5 1.5-0.5 1-0.5 1-0.3 0.2-0.2 0.3h2l1.5-0.5q1.5-0.5 4-1l2.5-0.5 1-0.5 1-0.5 1-0.3 1-0.2-0.2 1-0.3 1-0.3 0.2-0.2 0.3-0.2 0.3-0.3 0.2-0.3 0.2-0.2 0.3-0.2 0.3-0.3 0.2-0.3 0.2-0.2 0.3-0.2 0.3-0.3 0.2-3.5 8q-3.5 8-4 17.5t-8 17-12 17.5-5 13-0.8 5.5l-0.2 2.5-3-0.2q-3-0.29999-15-3.8t-22.8-10.8l-10.7-7.2-0.3-0.2-0.2-0.3-1-0.5-1-0.5-0.2-0.3-0.3-0.2-0.3-0.2-0.2-0.3-0.2-0.3-0.3-0.2-0.3-0.2-0.2-0.3-0.2-0.3-0.3-0.2-0.3-0.2-0.2-0.3-0.2-0.3-0.3-0.2-0.3-0.2-0.2-0.3 6.5-0.3 6.5-0.2-0.2-1.5-0.3-1.5-0.5-1q-0.5-1-2-4l-1.5-3-0.3-1.5-0.2-1.5h17v-2l-1.5-0.2-1.5-0.3-1-0.5-1-0.5-1.5-0.5q-1.5-0.5-3-1t-14.5-6-20.2-12.8l-7.3-7.2-0.5-1-0.5-1-0.3-0.2-0.2-0.3-0.2-0.3-0.3-0.2-0.5-1-0.5-1-0.3-1.5-0.2-1.5h18l-0.2-1-0.3-1-0.3-0.2-0.2-0.3-0.2-0.3-0.3-0.2-0.3-0.2-0.2-0.3-0.2-0.3-0.3-0.2-0.3-0.2-0.2-0.3-0.2-0.3-0.3-0.2-0.3-0.2-0.2-0.3-1-0.5q-1-0.5-2.5-1.2-1.5-0.79999-1.5-1.8t-4.2-4l-4.3-3-0.3-0.2-0.2-0.3-0.2-0.3-0.3-0.2-0.3-0.2-0.2-0.3-0.2-0.3-0.3-0.2-0.3-0.2-0.2-0.3-1-0.5-1-0.5-0.2-0.3-0.3-0.2-0.3-1-0.2-1 1-0.2 1-0.3 1-0.5 1-0.5h16.5q16.5 0 20-0.5l3.5-0.5 2.5-0.5 2.5-0.5-0.2-0.3-0.3-0.2-0.3-0.2-0.2-0.3-1-0.5-1-0.5-1-0.5-1-0.5-0.2-0.3-0.3-0.2-0.3-0.2-0.2-0.3-1-0.5q-1-0.5-10.5-7.5t-17.5-16-13.8-18.7q-5.7-9.8-9.2-23.8t-3.5-41.5v-27.5l0.3-0.2 0.2-0.3 0.2-0.3 0.3-0.2 0.3 0.2 0.2 0.3 2.5 1.5q2.5 1.5 2.7 1.8l0.3 0.2 0.3 0.2 0.2 0.3 0.2 0.3 0.3 0.2v-4l-0.5-4q-0.5-4-0.5-10.5t2-12l2-5.5 0.3-0.2 0.2-0.3 0.2-0.3 0.3-0.2 0.5-1 0.5-1 0.5-1 0.5-1 0.3-0.2 0.2-0.3 0.2-0.3 0.3-0.2 0.5-1 0.5-1 0.5 1.5 0.5 1.5 0.5 6.5 0.5 6.5 0.5-1 0.5-1 0.5-1 0.5-1 0.5-1 0.5-1 4.3-5.8q4.2-5.7 10.2-9.2t26-3.5 35 7.5 29.2 18.8q14.3 11.2 16.6 12.7 2.2 1.5 11.4 14 9.3 12.5 12.3 20.5t3.3 15q0.2 7-5 7-5.3 0 1.2 18.5t9.5 30.5 3 31.5-4 35.5-4.7 18.5q-0.8 2.5-8.3 4t-7.3-9q0.3-10.5 4.3-19.5t5-15.5 1-11z"/>
  </g>
  <path d="m760 602l1 0.5 1 0.5 1 0.5 0.2 0.3 0.3 0.2 0.3 0.2 0.2 0.3 1 0.5 1 0.5-1 0.5-1 0.5-5.5 0.5q-5.5 0.5-9 1l-3.5 0.5 0.2 0.3 0.3 0.2 0.3 0.2 0.2 0.3 0.2 0.3 0.3 0.2 0.5 1 0.5 1 0.3 0.2 0.2 0.3 0.2 0.3 0.3 0.2 0.3 0.2 0.2 0.3 17.2 24.3q17.3 24.2 26.3 39.7t14.5 31.5 7 24 1.5 18.5v10.5l-0.3-0.2-0.2-0.3-0.2-0.3-0.3-0.2-0.3-0.2-0.2-0.3-0.2-0.3-0.3-0.2-0.3-0.2-0.2-0.3-1-0.5q-1-0.5-3.8-2.8l-2.7-2.2-0.3-0.2-0.2-0.3-0.2-0.3-0.3-0.2-0.3-0.2-0.2-0.3-0.2-0.3-0.3-0.2-0.3-0.2-0.2-0.3-1-0.5-1-0.5-0.2-0.3-0.3-0.2v3l0.5 1.5 0.5 1.5 1.5 3.5q1.5 3.5 2 5l0.5 1.5v4l-0.3-0.2-0.2-0.3-1-0.5q-1-0.5-3.5-1.5l-2.5-1-1-0.3-1-0.2 0.2 1.5 0.3 1.5 1.5 8q1.5 8 1 23t-3.5 23-6.7 12.8q-3.8 4.7-13.3 10.2t-18.5 8-27.5 5-33.3 8.2q-14.7 5.8-25 13.6-10.2 7.7-13.4 11.4-3.3 3.8-3.8 4.8l-0.5 1-0.3 0.2-0.2 0.3-0.2 0.3-0.3 0.2-0.5 1-0.5 1-0.5 1-0.5 1-0.5 1-0.5 1v-8q0-8 1-15t4-15.5l3-8.5 0.5-1 0.5-1 0.5-1 0.5-1 0.3-0.2 0.2-0.3 0.2-0.3 0.3-0.2v-2l-0.3 0.2-0.2 0.3-1 0.5-1 0.5-1 0.5-1 0.5-1.5 0.5-1.5 0.5-1 0.5q-1 0.5-3.5 1.5t-26 13.5-36.5 22-27 18-32.5 16.5l-18.5 8-1 0.5-1 0.5-1.5 0.5-1.5 0.5-1.5 0.5-1.5 0.5 15-0.5q15-0.5 19-2t5.5-2l1.5-0.5 1-0.5 1-0.5 1.5-0.5 1.5-0.5h3l-0.2 0.3-0.3 0.2-0.5 1-0.5 1-0.3 0.2-0.2 0.3-0.2 0.3-0.3 0.2-0.3 0.2-0.2 0.3-0.2 0.3-0.3 0.2-0.3 0.2-0.2 0.3-1 0.5-1 0.5-0.2 0.3-0.3 0.2-0.3 0.2-0.2 0.3-1 0.5q-1 0.5-5 2.5t-16 5-29.5 3.5-29-2.5-27.5-11.5-32.5-20.5-33.7-28.3q-17.3-16.2-40-24.4l-22.8-8.3-1.5-0.5-1.5-0.5-1-0.3-1-0.2 0.2 1.5 0.3 1.5 0.5 1 0.5 1 0.3 1 0.2 1 1 0.2 1 0.3 0.2 0.3 0.3 0.2 0.3 0.2 0.2 0.3 6.5 3q6.5 3 8 3.5l1.5 0.5 2 0.5 2 0.5 1.5 0.5 1.5 0.5h-8.5q-8.5 0-10.5-0.5t-15.5-5l-13.5-4.5-1-0.5-1-0.5-1-0.5-1-0.5-1-0.5-1-0.5-0.2-0.3-0.3-0.2v2l0.3 0.2 0.2 0.3 0.2 0.3 0.3 0.2 0.5 1 0.5 1 0.5 1 0.5 1 1.5 2.5q1.5 2.5 2 3.5l0.5 1 0.3 0.2 0.2 0.3 0.2 0.3 0.3 0.2 0.5 1 0.5 1 0.5 1 0.5 1 0.3 0.2 0.2 0.3 0.2 0.3 0.3 0.2 0.3 0.2 0.2 0.3h-2l-0.2-0.3-0.3-0.2-0.3-0.2-0.2-0.3-0.2-0.3-0.3-0.2-0.3-0.2-0.2-0.3-1-0.5-1-0.5-0.2-0.3-0.3-0.2-0.3-0.2-0.2-0.3-0.2-0.3-0.3-0.2-0.3-0.2q-0.20001-0.29999-8.2-5.3t-18.5-8.5-15-6-11.5-9.5-14.2-18.3q-7.3-11.2-12.8-24.2t-8-27-1.5-27.5 5.5-26 11.5-24.5 17.3-22.8q10.2-10.7 32.7-27.7t30-24.5 11.7-15.2l4.3-7.8 0.5-1.5 0.5-1.5 0.5-2.5 0.5-2.5 0.5 2.5 0.5 2.5 0.5 6 0.5 6 0.3 0.2 0.2 0.3h1l0.2-0.3 0.3-0.2 0.5-1.5 0.5-1.5 0.5-1 0.5-1 0.5-1.5q0.5-1.5 3.5-10.5t8.5-36.5 11-42.5 11.5-24 17.3-20.2q11.2-11.3 22.7-18.8t23.5-11l12-3.5 1.5-0.5 1.5-0.5-1.5-0.5-1.5-0.5-2-0.5-2-0.5-1.5-0.5-1.5-0.5 1-0.5 1-0.5 2-0.5 2-0.5 18-3.5q18-3.5 30.5-3t38 6.8q25.5 6.2 25.5 7.2t-6.8 3q-6.7 2-6.2 5t4.2 4.2q3.8 1.3 27.8 0.79999 24-0.5 40.8-1.8 16.7-1.2 13 2-3.8 3.3 14.2 3.8t34 4.5 26.5 10 17.7 14.3q7.3 8.2 15.3 24.2t17.5 44.5 16.2 37.3q6.8 8.7 10.3 12.2t4.5 4zm2.8 120.5l0.2 2.5-2.5 0.2q-2.5 0.29999-6.5 0.79999l-4 0.5-2.5 0.5-2.5 0.5 0.2 0.3 0.3 0.2 0.3 0.2 0.2 0.3 0.2 0.3 0.3 0.2 0.3 0.2 0.2 0.3 0.2 0.3 0.3 0.2 0.3 0.2 0.2 0.3 0.2 0.3 0.3 0.2 2.7 3.2q2.8 3.3 3 3.6l0.3 0.2 0.3 0.2 0.2 0.3 0.2 0.3 0.3 0.2 0.3 0.2 0.2 0.3 0.2 0.3 0.3 0.2 0.3 0.2 0.2 0.3 0.2 0.3 0.3 0.2 0.3 0.2 0.2 0.3h-12l0.2 0.3 0.3 0.2 3.5 15q3.5 15 3 25t-3.5 17-8.7 11.8q-5.8 4.7-17.3 8.7t-17 5-21 1.3l-15.5 0.2 0.2-1.5 0.3-1.5 0.3-0.2 0.2-0.3 0.2-0.3 0.3-0.2 0.5-1 0.5-1 0.3-0.2 0.2-0.3 0.2-0.3q0.29999-0.20001 5.6-7.4l5.2-7.3 0.2-0.3 0.3-0.2 0.5-1 0.5-1 0.3-0.2 0.2-0.3 0.2-0.3 0.3-0.2 0.3-0.2 0.2-0.3 0.2-0.3 0.3-0.2 0.3-1 0.2-1-9 0.2q-9 0.29999-12 0.79999t-17 4-28 11l-14 7.5-0.2 0.3-0.3 0.2-0.3 0.2-0.2 0.3-1 0.5-1 0.5-1 0.3-1 0.2-0.2-3-0.3-3 0.5-11.5q0.5-11.5 4-19.5t5.2-10.5q1.8-2.5 11.8-7.3 10-4.7 18-6.7t20-1.5 13.5 0.79999q1.5 0.20001 1.5 8.7v8.5l1-0.2 1-0.3 1-0.5 1-0.5 1-0.5 1-0.5 1-0.5 1-0.5 0.2-0.3 0.3-0.2 0.3-0.2 0.2-0.3 0.2-0.3 0.3-0.2 0.3-0.2 0.2-0.3 0.2-0.3q0.29999-0.20001 0.59998-0.40002 0.20001-0.29999 2.4-5.6 2.3-5.2 1.3-13.2t-6.3-16q-5.2-8-6.4-8.5l-1.3-0.5-0.3-1-0.2-1-1-0.2-1-0.3-0.2-0.3-0.3-0.2-0.3-0.2-0.2-0.3-0.2-0.3-0.3-0.2-0.3-0.2-0.2-0.3-0.2-0.3-0.3-0.2-0.3-0.2-0.2-0.3h5l5 0.5 5 0.5h2l-0.2-0.3-0.3-0.2-0.3-0.2-0.2-0.3-0.2-0.3-0.3-0.2-0.3-0.2-0.2-0.3-0.2-0.3-0.3-0.2-0.3-0.2-0.2-0.3-0.2-0.3-0.3-0.2-0.3-0.2-0.2-0.3-0.2-0.3-0.3-0.2-0.3-0.2-0.2-0.3-0.2-0.3-0.3-0.2-0.3-0.2-0.2-0.3-0.2-0.3q-0.29999-0.20001-6.3-6.2l-6-6-0.3-0.2-0.2-0.3-0.2-0.3-0.3-0.2-0.3-0.2-0.2-0.3-0.2-0.3-0.3-0.2-0.3-0.2-0.2-0.3-0.2-0.3-0.3-0.2-0.3-0.2-0.2-0.3-0.2-0.3-0.3-0.2-0.3-0.2-0.2-0.3-0.2-0.3-0.3-0.2-0.3-0.2-0.2-0.3-0.2-0.3-0.3-0.2-0.3-0.2-0.2-0.3h2l1.5 0.5 1.5 0.5 1 0.5 1 0.5 17 6.5q17 6.5 18.5 7l1.5 0.5 1 0.5 1 0.5 1.5 0.5 1.5 0.5 1 0.3 1 0.2-0.2-1-0.3-1-0.5-1-0.5-1-0.5-1.5-0.5-1.5-0.5-1q-0.5-1-4.8-9.5-4.2-8.5-6-9.5-1.7-1-11.2-8t-42.8-24.8q-33.2-17.7-40.4-24-7.3-6.2-11.3-13.2t-4.5-17l-0.5-10 0.3-1.5 0.2-1.5 5 0.8q5 0.70001 7 1.2l2 0.5h4l-0.2-0.3-0.3-0.2-0.3-0.2-0.2-0.3-1-0.5-1-0.5-0.2-0.3-0.3-0.2-0.3-0.2-0.2-0.3-1-0.5-1-0.5-0.2-0.3-0.3-0.2-0.3-0.2-0.2-0.3-0.2-0.3q-0.29999-0.20001-6-6-5.8-5.7-8.6-12-2.7-6.2-1.7-13.7l1-7.5 0.5-1.5 0.5-1.5 0.5-1 0.5-1 0.3-1 0.2-1-1 0.2-1 0.3-0.2 0.3-0.3 0.2-0.3 0.2-0.2 0.3-0.2 0.3-0.3 0.2-0.3 0.2-0.2 0.3-0.2 0.3-0.3 0.2-0.5 1-0.5 1-0.3 0.2-0.2 0.3-0.2 0.3-0.3 0.2-1 3q-1 3-0.70001 16.5 0.20001 13.5-2 15-2.3 1.5-2.3 15.5t2.7 21.8q2.8 7.7 9.8 16.7t18.5 18 21.5 15 11 6.5l1 0.5 0.2 0.3 0.3 0.2 0.3 0.2 0.2 0.3 1.5 0.5 1.5 0.5 0.2 0.3 0.3 0.2 0.3 0.2 0.2 0.3 1 0.5 1 0.5-1 0.5-1 0.5-3 0.5q-3 0.5-9 1.5l-6 1-1 0.5-1 0.5 0.2 0.3 0.3 0.2 0.3 0.2 0.2 0.3 0.2 0.3 0.3 0.2 0.3 0.2 0.2 0.3 0.2 0.3 0.3 0.2 0.3 0.2 0.2 0.3 0.2 0.3 0.3 0.2 5.3 6.8q5.2 6.7 5.4 7l0.3 0.2 0.3 0.2 0.2 0.3 0.2 0.3 0.3 0.2 0.3 0.2 0.2 0.3 0.2 0.3 0.3 0.2 0.3 0.2 0.2 0.3 0.2 0.3 0.3 0.2 0.3 0.2 0.2 0.3 0.2 0.3 0.3 0.2 0.3 1 0.2 1-6.5 0.2q-6.5 0.29999-10 0.79999l-3.5 0.5 1 0.5 1 0.5 0.2 0.3 0.3 0.2 0.3 0.2 0.2 0.3 0.2 0.3 0.3 0.2 0.3 0.2 0.2 0.3 1 0.5 1 0.5 0.2 0.3 0.3 0.2 0.3 0.2 0.2 0.3 8 5.5q8 5.5 9 6l1 0.5 0.2 0.3 0.3 0.2 0.3 0.2 0.2 0.3 0.2 0.3 0.3 0.2 0.3 0.2 0.2 0.3 1 0.5 1 0.5 0.2 0.3 0.3 0.2 0.3 0.2 0.2 0.3 0.2 0.3 0.3 0.2 0.3 0.2 0.2 0.3-20.5 2.5q-20.5 2.5-36 8.5t-27.5 14.5-19.8 16.8q-7.7 8.2-12.2 17.2t-4.5 20 4.3 18.8q4.2 7.7 11.7 14.7t8.5 7.5l1 0.5 1 0.5 1 0.5-0.2 0.3-0.3 0.2-0.3 0.2-0.2 0.3-0.2 0.3-0.3 0.2-0.3 0.2-0.2 0.3-1 0.5-1 0.5-0.2 0.3q-0.29999 0.20001-7 5-6.8 4.7-23.8 13.2t-31.5 12.5l-14.5 4-2.5 0.5-2.5 0.5 3 0.5 3 0.5 3.5 0.5q3.5 0.5 5.5 1l2 0.5 2.5 0.5 2.5 0.5 0.2 0.3 0.3 0.2 0.3 0.2 0.2 0.3-1.5 0.5-1.5 0.5-4.5 0.5q-4.5 0.5-17.5 0t-21-5.5-32.8-26.7q-24.7-21.8-39.2-32.8t-33.2-20.8q-18.8-9.7-35.8-15.4l-17-5.8v10l-1-0.2-1-0.3-1-0.5-1-0.5-1-0.5q-1-0.5-6.5-3l-5.5-2.5-0.2-0.3-0.3-0.2-1 2q-1 2-1.5 4l-0.5 2-0.3 0.2-0.2 0.3h-2l-1-0.5-1-0.5-0.2-0.3-0.3-0.2-0.3-0.2-0.2-0.3-0.2-0.3q-0.29999-0.20001-2.8-3.2t-6-11-3.5-29 4.5-33 14.8-27q10.2-15 11.2-15.2 1-0.29999 2.5-2.6 1.5-2.2 5-5 3.5-2.7 9-6.2t9.3-8.2l3.7-4.8 0.3-0.2 0.2-0.3 0.2-0.3 0.3-0.2 0.3-0.2 0.2-0.3 0.2-0.3 0.3-0.2 0.5-1 0.5-1 0.3-0.2 0.2-0.3 0.2-0.3 0.3-0.2 0.5 5.5 0.5 5.5 0.3 0.2 0.2 0.3h1l0.2-0.3 0.3-0.2 0.5-1 0.5-1 0.3-0.2 0.2-0.3 0.2-0.3 0.3-0.2 0.3-0.2 0.2-0.3 0.2-0.3 0.3-0.2 0.3-0.2 0.2-0.3 0.2-0.3 0.3-0.2 0.3-0.2 0.2-0.3 0.2-0.3q0.29999-0.20001 6.3-10.2t18.5-52.5 18.5-57.5 10.3-21.2q4.2-6.3 10.2-11.8t19-11.5 29-9l16-3 1-0.3q1-0.20001-1.5-3.4-2.5-3.3 15-1.6 17.5 1.8 16.3 6.3-1.3 4.5 1 7.7 2.2 3.3 10.2 7.3t15.5 5.5 30.5 1 31.8-1.2q8.7-0.79999 5.7 3.7t-2.3 4.7q0.79999 0.29999 13.3-4.2t28.5-4.5 24.2 3.7q8.3 3.8 17.3 11.8t14 17 9 24 7 25 5.7 14.2q2.8 4.3-1.4 5-4.3 0.79999-3.8 5.3t8.5 15.5 16.3 21q8.2 10 9.2 10t10.2 12.5q9.3 12.5 14.3 23.5t7.5 21 2.8 12.5z" fill="#040507" stroke="#040507"/>
  <path d="m748 156l0.5-2 0.3-3 0.2-3h2l0.8 29.5q0.70001 29.5-2.8 49.5t-8 35.5-5 17l-0.5 1.5-0.5 1.5-0.5 1.5-0.5 1.5-0.5 1.5-0.3 1-0.2 1 1-0.2 1-0.3 0.2-0.3 0.3-0.2 0.5-1 0.5-1 0.3-0.2 0.2-0.3 0.2-0.3 0.3-0.2 0.5-1 0.5-1 0.3-0.2 0.2-0.3 4.5-6q4.5-6 4.7-6.3l0.3-0.2 0.5-1 0.5-1 0.3-0.2 0.2-0.3 0.2-0.3 0.3-0.2 0.3-0.2 0.2-0.3 0.2-0.3 0.3-0.2 0.3-1.5 0.2-1.5h2l-0.2 1-0.3 1-0.5 1.5-0.5 1.5-0.5 1.5-0.5 1.5-0.5 2q-0.5 2-3 9t-13.5 29-21 35.5-13.7 17q-3.8 3.5-3.8 4.5t-1 1-1.2 1q-0.29999 1-3 3-2.8 2-2.8 3t-2.2 2.5q-2.3 1.5-17.6 13.7-15.2 12.3-14 19.6l1.3 7.2 0.3 1.5 0.2 1.5-2.5-0.2-2.5-0.3-2.5-0.5q-2.5-0.5-30-8.5t-46.5-15-30-14-21.8-18.7q-10.7-11.8-17.7-24.8l-7-13-0.5-1.5-0.5-1.5-0.5-1-0.5-1v-3l0.3 0.2 0.2 0.3 0.2 0.3 0.3 0.2 0.3 0.2 0.2 0.3 0.2 0.3 0.3 0.2 0.3 0.2 0.2 0.3 0.2 0.3 0.3 0.2 0.3 0.2 0.2 0.3 0.2 0.3 0.3 0.2 0.3 0.2 0.2 0.3 2.2 1.7q2.3 1.8 2.6 2l0.2 0.3 0.2 0.3 0.3 0.2 0.3 0.2 0.2 0.3 0.2 0.3 0.3 0.2 0.3 0.2 0.2 0.3 0.2 0.3 0.3 0.2 0.3 0.2 0.2 0.3 0.2 0.3 0.3 0.2 0.3 0.2 0.2 0.3h2l-0.2-0.3-0.3-0.2-0.5-1-0.5-1-0.5-1-0.5-1-0.5-1-0.5-1-0.5-1q-0.5-1-6.5-18.5t-6.5-31.5 0.5-21.5 7.5-31l6.5-23.5 0.5-1.5 0.5-1.5 0.5-1.5 0.5-1.5 0.3-1 0.2-1h-2l-0.2 1-0.3 1-0.3 0.2-0.2 0.3-0.2 0.3-0.3 0.2-0.3 0.2-0.2 0.3-0.2 0.3-0.3 0.2-0.5 1-0.5 1-0.3 0.2q-0.20001 0.3-1.7 2.3l-1.5 2-0.2 0.3-0.3 0.2-0.5 1-0.5 1-0.3 0.2-0.2 0.3-0.2 0.3-0.3 0.2-0.5 1-0.5 1-0.3 0.2-0.2 0.3-0.2 0.3-0.3 0.2v-7l6.5-28.5q6.5-28.5 13.5-46t11.5-25 5-8.5l0.5-1 0.3-0.2 0.2-0.3 0.2-0.3 0.3-0.2 0.5-1 0.5-1 0.3-0.2 0.2-0.3 0.2-0.3 0.3-0.2 0.3-0.2 0.2-0.3 0.2-0.3 0.3-0.2v-1l-0.3-0.2-0.2-0.3-0.2-0.3-0.3-0.2-0.3 0.2-0.2 0.3-0.2 0.3-0.3 0.2-0.3 0.2-0.2 0.3-1 0.5-1 0.5-0.2 0.3-0.3 0.2-0.3 0.2q-0.20001 0.3-2.4 1.6l-2.3 1.2-0.3 0.2-0.2 0.3-1 0.5-1 0.5-0.2 0.3-0.3 0.2-0.3 0.2-0.2 0.3h-2l0.2-0.3 0.3-0.2 0.3-0.2 0.2-0.3 0.2-0.3 0.3-0.2 0.5-1 0.5-1 0.3-0.2 0.2-0.3 0.2-0.3 0.3-0.2 0.5-1 0.5-1 0.3-0.2 0.2-0.3 0.2-0.3 0.3-0.2 10.7-10.8q10.8-10.7 24.8-19.2t27.5-12.5 26.5-5 27 1.5 24 6.8q10 4.2 10 5.2t-9.5 1.8q-9.5 0.7 0.29999 8 9.7 7.2 20.2 18.7t17.5 23.5 11.5 28 6.5 30.5 2.7 31.7q0.79999 17.3 3.6 14.6 2.7-2.8 6.7-12.8t7.5-23.5 4-15.5zm-48.2 5.5l0.2 2.5 2.2 15q2.3 15 2.6 30.5 0.20001 15.5 8.7 13.5t7.7 9q-0.70001 11-4.7 20.5t-11.3 19.3q-7.2 9.7-7.4 10l-0.3 0.2-0.3 0.2-0.2 0.3-0.2 0.3-0.3 0.2-0.3 0.2-0.2 0.3-0.2 0.3-0.3 0.2-0.3 0.2-0.2 0.3 0.2 0.3 0.3 0.2 0.3 0.2 0.2 0.3 2.5 0.5q2.5 0.5 4.5 0.79999l2 0.2-0.2 1-0.3 1-0.3 0.2-0.2 0.3-0.2 0.3-0.3 0.2-0.5 1q-0.5 1-2.5 3l-2 2-0.3 0.2-0.2 0.3-0.2 0.3-0.3 0.2-0.3 0.2-0.2 0.3-0.2 0.3-0.3 0.2-0.3 0.2-0.2 0.3-0.2 0.3-0.3 0.2-0.3 0.2-0.2 0.3h4l2.5-0.5q2.5-0.5 6-0.79999l3.5-0.2-0.2 1-0.3 1-0.5 2.5-0.5 2.5-0.5 1.5q-0.5 1.5-4.5 10t-12 18-29.5 25.5l-21.5 16-0.3 0.2-0.2 0.3-1 0.5-1 0.5-0.2 0.3-0.3 0.2-0.3 0.2-0.2 0.3-1 0.3-1 0.2-0.2-1-0.3-1-0.5-2.5-0.5-2.5-0.5-2.5-0.5-2.5-0.5-2.5-0.5-2.5-0.3-2-0.2-2 2.5 0.2 2.5 0.3 3 0.3q3 0.20001 2.5 2.2t1 2h1.5l15.2-25.5q15.3-25.5 22.3-41.5t7.5-18 1-4.5l0.5-2.5 0.3-1.5 0.2-1.5-2 0.2q-2 0.29999-7.5 1l-5.5 0.8 0.2-1 0.3-1 0.5-1.5 0.5-1.5 3-7.5q3-7.5 3.5-9l0.5-1.5 0.5-1 0.5-1 0.5-1 0.5-1 0.3-0.2 0.2-0.3h-3l-1.5 0.5q-1.5 0.5-5 1.5l-3.5 1h-2l0.2-0.3 0.3-0.2 0.3-0.2 0.2-0.3 0.2-0.3 0.3-0.2 0.3-0.2 0.2-0.3 0.2-0.3 0.3-0.2 0.5-1 0.5-1 0.3-0.2 0.2-0.3 0.2-0.3 0.3-0.2 0.5-1.5q0.5-1.5 2.5-7.5t2.5-22.5-2-25-10.2-20.5q-7.8-12-8.8-12t-1.2-1q-0.29999-1-5-5.2l-4.8-4.3-0.2-0.3-0.3-0.2-0.3-0.2-0.2-0.3-0.2-0.3-0.3-0.2-0.3-0.2-0.2-0.3-1-0.5-1-0.5-0.2-0.3-0.3-0.2-0.3-0.2-0.2-0.3-0.2-0.3-0.3-0.2-0.3-0.2-0.2-0.3h-2l0.2 0.3 0.3 0.2 0.3 0.2 0.2 0.3 0.2 0.3 0.3 0.2 0.3 0.2 0.2 0.3 0.2 0.3 0.3 0.2 0.3 0.2 0.2 0.3 0.2 0.3 0.3 0.2 0.5 1 0.5 1 0.3 0.2 0.2 0.3 0.2 0.3 0.3 0.2 6 9q6 9 10.5 21t6 21 1 19.5-4 20-10.8 18.7q-7.2 9.3-10 12-2.7 2.8-3 3l-0.2 0.3-1 0.5-1 0.5-0.2 0.3-0.3 0.2-0.3 0.2-0.2 0.3-0.2 0.3-0.3 0.2-0.3 0.2-0.2 0.3-1 0.5-1 0.5-0.2 0.3-0.3 0.2-0.3 0.2-0.2 0.3v0.5l1-0.2 1-0.3 1.5-0.5 1.5-0.5 1-0.5 1-0.5 7-2.5q7-2.5 8-3l1-0.5 1-0.5 1-0.5 1.5-0.5 1.5-0.5h2l-0.2 0.3-0.3 0.2-0.3 0.2-0.2 0.3-0.2 0.3-0.3 0.2-0.3 0.2-0.2 0.3-0.2 0.3-0.3 0.2-0.3 0.2-0.2 0.3-0.2 0.3-0.3 0.2-0.5 1-0.5 1-0.3 0.2-0.2 0.3-0.2 0.3-0.3 0.2-0.3 0.2q-0.20001 0.29999-7.4 8.6l-7.3 8.2-0.3 0.2-0.2 0.3-0.2 0.3-0.3 0.2-0.3 0.2-0.2 0.3-0.2 0.3-0.3 0.2-0.3 0.2-0.2 0.3-0.2 0.3-0.3 0.2-0.3 0.2-0.2 0.3-0.2 0.3-0.3 0.2-0.3 0.2-0.2 0.3-0.2 0.3-0.3 0.2-0.3 0.2-0.2 0.3h3l1.5-0.5 1.5-0.5 9.5-3q9.5-3 11-3.5l1.5-0.5 1.5-0.3 1.5-0.2-0.2 4.5q-0.29999 4.5-1.8 11t-5.8 12.3q-4.2 5.7-13.2 10.2t-17 10l-8 5.5-0.2 0.3-0.3 0.2-0.3 0.2-0.2 0.3-0.2 0.3-0.3 0.2-0.3 0.2-0.2 0.3-1 0.3-1 0.2-0.2-1.5-0.3-1.5-0.5-1q-0.5-1-3-7.5l-2.5-6.5-0.5-1-0.5-1-0.5-1.5-0.5-1.5-0.3-0.2-0.2-0.3-0.2-0.3-0.3-0.2-0.5 1-0.5 1-0.5 1-0.5 1-0.5 1-0.5 1-2.5 9.5q-2.5 9.5-2 23t1 16.5 1 5.5l0.5 2.5 0.3 1.5 0.2 1.5-1.5-0.2-1.5-0.3-1-0.5-1-0.5-1.5-0.5q-1.5-0.5-17.5-8t-29.5-15.5l-13.5-8-1-0.5-1-0.5-0.2-0.3-0.3-0.2-0.3-0.2-0.2-0.3-0.2-0.3-0.3-0.2-0.3-0.2-0.2-0.3-0.2-0.3-0.3-0.2-0.5-1-0.5-1-0.3-0.2-0.2-0.3 1.5-0.5q1.5-0.5 5.5-1l4-0.5-0.2-0.3-0.3-0.2-0.5-1-0.5-1-0.3-0.2-0.2-0.3-0.2-0.3-0.3-0.2-0.3-0.2q-0.20001-0.29999-7-12-6.7-11.8-11.2-26.3t-4.5-31.5 10.5-50.5l10.5-33.5 0.5-1 0.5-1 0.3-1.5 0.2-1.5-1.5 0.2-1.5 0.3-2.5 0.5q-2.5 0.5-5 0.8l-2.5 0.2 0.2-1 0.3-1 7-25q7-25 14.5-40t12.8-21.2q5.2-6.3 16.2-11.8t18-7 21-1 10 1.8q-4 1.2-4 2.2t12 5.8q12 4.7 21.8 12 9.7 7.2 16.2 14.7t11.5 18 8.5 22.5 3.8 14.5zm-189.6 173.3q-0.20001-0.29999 0-0.59998 0.29999-0.20001 0.29999 0.29999t-0.29999 0.29999z" fill="#050607" stroke="#050607"/>
 </g>
</svg>
